<svg width="173" height="36" viewBox="0 0 173 36" fill="none" xmlns="http://www.w3.org/2000/svg">
<path d="M18 36C27.9411 36 36 27.9411 36 18C36 8.05887 27.9411 0 18 0C8.05887 0 0 8.05887 0 18C0 27.9411 8.05887 36 18 36Z" fill="#3C50E0"/>
<path d="M18 10.5L24.857 18.0431V25.5H18V10.5Z" fill="white"/>
<path opacity="0.7" d="M17.857 25L11 17.4569V10H17.857V25Z" fill="white"/>
<path d="M45.826 25.5V10.1H48.774L55.33 20.968H53.768L60.214 10.1H63.14L63.184 25.5H59.84L59.818 15.226H60.434L55.286 23.872H53.68L48.422 15.226H49.17V25.5H45.826ZM72.4697 25.676C71.1204 25.676 69.9324 25.412 68.9057 24.884C67.8937 24.356 67.1091 23.6373 66.5517 22.728C65.9944 21.804 65.7157 20.7553 65.7157 19.582C65.7157 18.394 65.9871 17.3453 66.5297 16.436C67.0871 15.512 67.8424 14.7933 68.7957 14.28C69.7491 13.752 70.8271 13.488 72.0297 13.488C73.1884 13.488 74.2297 13.7373 75.1537 14.236C76.0924 14.72 76.8331 15.424 77.3757 16.348C77.9184 17.2573 78.1897 18.35 78.1897 19.626C78.1897 19.758 78.1824 19.912 78.1677 20.088C78.1531 20.2493 78.1384 20.4033 78.1237 20.55H68.5097V18.548H76.3197L74.9997 19.142C74.9997 18.526 74.8751 17.9907 74.6257 17.536C74.3764 17.0813 74.0317 16.7293 73.5917 16.48C73.1517 16.216 72.6384 16.084 72.0517 16.084C71.4651 16.084 70.9444 16.216 70.4897 16.48C70.0497 16.7293 69.7051 17.0887 69.4557 17.558C69.2064 18.0127 69.0817 18.5553 69.0817 19.186V19.714C69.0817 20.3593 69.2211 20.9313 69.4997 21.43C69.7931 21.914 70.1964 22.288 70.7097 22.552C71.2377 22.8013 71.8537 22.926 72.5577 22.926C73.1884 22.926 73.7384 22.8307 74.2077 22.64C74.6917 22.4493 75.1317 22.1633 75.5277 21.782L77.3537 23.762C76.8111 24.378 76.1291 24.8547 75.3077 25.192C74.4864 25.5147 73.5404 25.676 72.4697 25.676ZM85.3146 25.676C83.9213 25.676 82.836 25.324 82.0586 24.62C81.2813 23.9013 80.8926 22.838 80.8926 21.43V11.046H84.3246V21.386C84.3246 21.8847 84.4566 22.2733 84.7206 22.552C84.9846 22.816 85.344 22.948 85.7986 22.948C86.3413 22.948 86.8033 22.8013 87.1846 22.508L88.1086 24.928C87.7566 25.1773 87.3313 25.368 86.8326 25.5C86.3486 25.6173 85.8426 25.676 85.3146 25.676ZM79.0666 16.568V13.928H87.2726V16.568H79.0666ZM97.2952 25.5V23.19L97.0752 22.684V18.548C97.0752 17.8147 96.8478 17.2427 96.3932 16.832C95.9532 16.4213 95.2712 16.216 94.3472 16.216C93.7165 16.216 93.0932 16.3187 92.4772 16.524C91.8758 16.7147 91.3625 16.9787 90.9372 17.316L89.7052 14.918C90.3505 14.4633 91.1278 14.1113 92.0372 13.862C92.9465 13.6127 93.8705 13.488 94.8092 13.488C96.6132 13.488 98.0138 13.9133 99.0112 14.764C100.009 15.6147 100.507 16.942 100.507 18.746V25.5H97.2952ZM93.6872 25.676C92.7632 25.676 91.9712 25.522 91.3112 25.214C90.6512 24.8913 90.1452 24.4587 89.7932 23.916C89.4412 23.3733 89.2652 22.7647 89.2652 22.09C89.2652 21.386 89.4338 20.77 89.7712 20.242C90.1232 19.714 90.6732 19.3033 91.4212 19.01C92.1692 18.702 93.1445 18.548 94.3472 18.548H97.4932V20.55H94.7212C93.9145 20.55 93.3572 20.682 93.0492 20.946C92.7558 21.21 92.6092 21.54 92.6092 21.936C92.6092 22.376 92.7778 22.728 93.1152 22.992C93.4672 23.2413 93.9438 23.366 94.5452 23.366C95.1172 23.366 95.6305 23.234 96.0852 22.97C96.5398 22.6913 96.8698 22.288 97.0752 21.76L97.6032 23.344C97.3538 24.1067 96.8992 24.686 96.2392 25.082C95.5792 25.478 94.7285 25.676 93.6872 25.676ZM103.855 25.5V10.1H106.803L113.359 20.968H111.797L118.243 10.1H121.169L121.213 25.5H117.869L117.847 15.226H118.463L113.315 23.872H111.709L106.451 15.226H107.199V25.5H103.855ZM130.499 25.676C129.15 25.676 127.962 25.412 126.935 24.884C125.923 24.356 125.138 23.6373 124.581 22.728C124.024 21.804 123.745 20.7553 123.745 19.582C123.745 18.394 124.016 17.3453 124.559 16.436C125.116 15.512 125.872 14.7933 126.825 14.28C127.778 13.752 128.856 13.488 130.059 13.488C131.218 13.488 132.259 13.7373 133.183 14.236C134.122 14.72 134.862 15.424 135.405 16.348C135.948 17.2573 136.219 18.35 136.219 19.626C136.219 19.758 136.212 19.912 136.197 20.088C136.182 20.2493 136.168 20.4033 136.153 20.55H126.539V18.548H134.349L133.029 19.142C133.029 18.526 132.904 17.9907 132.655 17.536C132.406 17.0813 132.061 16.7293 131.621 16.48C131.181 16.216 130.668 16.084 130.081 16.084C129.494 16.084 128.974 16.216 128.519 16.48C128.079 16.7293 127.734 17.0887 127.485 17.558C127.236 18.0127 127.111 18.5553 127.111 19.186V19.714C127.111 20.3593 127.25 20.9313 127.529 21.43C127.822 21.914 128.226 22.288 128.739 22.552C129.267 22.8013 129.883 22.926 130.587 22.926C131.218 22.926 131.768 22.8307 132.237 22.64C132.721 22.4493 133.161 22.1633 133.557 21.782L135.383 23.762C134.84 24.378 134.158 24.8547 133.337 25.192C132.516 25.5147 131.57 25.676 130.499 25.676ZM138.504 25.5V13.664H141.782V17.008L141.32 16.04C141.672 15.204 142.237 14.5733 143.014 14.148C143.791 13.708 144.737 13.488 145.852 13.488V16.656C145.705 16.6413 145.573 16.634 145.456 16.634C145.339 16.6193 145.214 16.612 145.082 16.612C144.143 16.612 143.381 16.8833 142.794 17.426C142.222 17.954 141.936 18.7827 141.936 19.912V25.5H138.504ZM153.527 25.676C152.251 25.676 151.114 25.4193 150.117 24.906C149.119 24.378 148.335 23.652 147.763 22.728C147.205 21.804 146.927 20.7553 146.927 19.582C146.927 18.394 147.205 17.3453 147.763 16.436C148.335 15.512 149.119 14.7933 150.117 14.28C151.114 13.752 152.251 13.488 153.527 13.488C154.773 13.488 155.859 13.752 156.783 14.28C157.707 14.7933 158.389 15.534 158.829 16.502L156.167 17.932C155.859 17.3747 155.47 16.964 155.001 16.7C154.546 16.436 154.047 16.304 153.505 16.304C152.918 16.304 152.39 16.436 151.921 16.7C151.451 16.964 151.077 17.338 150.799 17.822C150.535 18.306 150.403 18.8927 150.403 19.582C150.403 20.2713 150.535 20.858 150.799 21.342C151.077 21.826 151.451 22.2 151.921 22.464C152.39 22.728 152.918 22.86 153.505 22.86C154.047 22.86 154.546 22.7353 155.001 22.486C155.47 22.222 155.859 21.804 156.167 21.232L158.829 22.684C158.389 23.6373 157.707 24.378 156.783 24.906C155.859 25.4193 154.773 25.676 153.527 25.676ZM166.528 25.676C165.179 25.676 163.991 25.412 162.964 24.884C161.952 24.356 161.168 23.6373 160.61 22.728C160.053 21.804 159.774 20.7553 159.774 19.582C159.774 18.394 160.046 17.3453 160.588 16.436C161.146 15.512 161.901 14.7933 162.854 14.28C163.808 13.752 164.886 13.488 166.088 13.488C167.247 13.488 168.288 13.7373 169.212 14.236C170.151 14.72 170.892 15.424 171.434 16.348C171.977 17.2573 172.248 18.35 172.248 19.626C172.248 19.758 172.241 19.912 172.226 20.088C172.212 20.2493 172.197 20.4033 172.182 20.55H162.568V18.548H170.378L169.058 19.142C169.058 18.526 168.934 17.9907 168.684 17.536C168.435 17.0813 168.09 16.7293 167.65 16.48C167.21 16.216 166.697 16.084 166.11 16.084C165.524 16.084 165.003 16.216 164.548 16.48C164.108 16.7293 163.764 17.0887 163.514 17.558C163.265 18.0127 163.14 18.5553 163.14 19.186V19.714C163.14 20.3593 163.28 20.9313 163.558 21.43C163.852 21.914 164.255 22.288 164.768 22.552C165.296 22.8013 165.912 22.926 166.616 22.926C167.247 22.926 167.797 22.8307 168.266 22.64C168.75 22.4493 169.19 22.1633 169.586 21.782L171.412 23.762C170.87 24.378 170.188 24.8547 169.366 25.192C168.545 25.5147 167.599 25.676 166.528 25.676Z" fill="#1C274C"/>
</svg>
